<svg width="152" height="50" viewBox="0 0 152 50" fill="none" xmlns="http://www.w3.org/2000/svg">
<rect width="152" height="50" fill="#F0EDFF"/>
<path d="M23.8523 19.5881V16.5455H38.1875V19.5881H32.8438V34H29.196V19.5881H23.8523ZM44.5476 34.2557C43.201 34.2557 42.0419 33.983 41.0703 33.4375C40.1044 32.8864 39.3601 32.108 38.8374 31.1023C38.3146 30.0909 38.0533 28.8949 38.0533 27.5142C38.0533 26.1676 38.3146 24.9858 38.8374 23.9688C39.3601 22.9517 40.0959 22.1591 41.0447 21.5909C41.9993 21.0227 43.1186 20.7386 44.4027 20.7386C45.2663 20.7386 46.0703 20.8778 46.8146 21.1562C47.5646 21.429 48.218 21.8409 48.7749 22.392C49.3374 22.9432 49.7749 23.6364 50.0874 24.4716C50.3999 25.3011 50.5561 26.2727 50.5561 27.3864V28.3835H39.5021V26.1335H47.1385C47.1385 25.6108 47.0249 25.1477 46.7976 24.7443C46.5703 24.3409 46.255 24.0256 45.8516 23.7983C45.4538 23.5653 44.9908 23.4489 44.4624 23.4489C43.9112 23.4489 43.4226 23.5767 42.9964 23.8324C42.576 24.0824 42.2464 24.4205 42.0078 24.8466C41.7692 25.267 41.647 25.7358 41.6413 26.2528V28.392C41.6413 29.0398 41.7607 29.5994 41.9993 30.071C42.2436 30.5426 42.5874 30.9062 43.0305 31.1619C43.4737 31.4176 43.9993 31.5455 44.6072 31.5455C45.0107 31.5455 45.38 31.4886 45.7152 31.375C46.0504 31.2614 46.3374 31.0909 46.576 30.8636C46.8146 30.6364 46.9964 30.358 47.1214 30.0284L50.4794 30.25C50.3089 31.0568 49.9595 31.7614 49.4311 32.3636C48.9084 32.9602 48.2322 33.4261 47.4027 33.7614C46.5788 34.0909 45.6271 34.2557 44.5476 34.2557ZM58.8402 34.2557C57.4993 34.2557 56.3459 33.9716 55.38 33.4034C54.4197 32.8295 53.6811 32.0341 53.1641 31.017C52.6527 30 52.397 28.8295 52.397 27.5057C52.397 26.1648 52.6555 24.9886 53.1726 23.9773C53.6953 22.9602 54.4368 22.1676 55.397 21.5994C56.3572 21.0256 57.4993 20.7386 58.8232 20.7386C59.9652 20.7386 60.9652 20.946 61.8232 21.3608C62.6811 21.7756 63.3601 22.358 63.8601 23.108C64.3601 23.858 64.6357 24.7386 64.6868 25.75H61.2607C61.1641 25.0966 60.9084 24.571 60.4936 24.1733C60.0845 23.7699 59.5476 23.5682 58.8828 23.5682C58.3203 23.5682 57.8288 23.7216 57.4084 24.0284C56.9936 24.3295 56.6697 24.7699 56.4368 25.3494C56.2038 25.929 56.0874 26.6307 56.0874 27.4545C56.0874 28.2898 56.201 29 56.4283 29.5852C56.6612 30.1705 56.9879 30.6165 57.4084 30.9233C57.8288 31.2301 58.3203 31.3835 58.8828 31.3835C59.2976 31.3835 59.6697 31.2983 59.9993 31.1278C60.3345 30.9574 60.6101 30.7102 60.826 30.3864C61.0476 30.0568 61.1925 29.6619 61.2607 29.2017H64.6868C64.63 30.2017 64.3572 31.0824 63.8686 31.8438C63.3857 32.5994 62.718 33.1903 61.8658 33.6165C61.0135 34.0426 60.005 34.2557 58.8402 34.2557ZM70.642 26.4318V34H67.0114V16.5455H70.5398V23.2188H70.6932C70.9886 22.446 71.4659 21.8409 72.125 21.4034C72.7841 20.9602 73.6108 20.7386 74.6051 20.7386C75.5142 20.7386 76.3068 20.9375 76.983 21.3352C77.6648 21.7273 78.1932 22.2926 78.5682 23.0312C78.9489 23.7642 79.1364 24.642 79.1307 25.6648V34H75.5V26.3125C75.5057 25.5057 75.3011 24.8778 74.8864 24.429C74.4773 23.9801 73.9034 23.7557 73.1648 23.7557C72.6705 23.7557 72.233 23.8608 71.8523 24.071C71.4773 24.2812 71.1818 24.5881 70.9659 24.9915C70.7557 25.3892 70.6477 25.8693 70.642 26.4318ZM82.0561 34V16.5455H89.0447C90.3288 16.5455 91.3999 16.7358 92.2578 17.1165C93.1158 17.4972 93.7607 18.0256 94.1925 18.7017C94.6243 19.3722 94.8402 20.1449 94.8402 21.0199C94.8402 21.7017 94.7038 22.3011 94.4311 22.8182C94.1584 23.3295 93.7834 23.75 93.3061 24.0795C92.8345 24.4034 92.2947 24.6335 91.6868 24.7699V24.9403C92.3516 24.9687 92.9737 25.1562 93.5533 25.5028C94.1385 25.8494 94.6129 26.3352 94.9766 26.9602C95.3402 27.5795 95.522 28.3182 95.522 29.1761C95.522 30.1023 95.2919 30.929 94.8317 31.6562C94.3771 32.3778 93.7038 32.9489 92.8118 33.3693C91.9197 33.7898 90.8203 34 89.5135 34H82.0561ZM85.7464 30.983H88.755C89.7834 30.983 90.5334 30.7869 91.005 30.3949C91.4766 29.9972 91.7124 29.4687 91.7124 28.8097C91.7124 28.3267 91.5959 27.9006 91.3629 27.5312C91.13 27.1619 90.7976 26.8722 90.3658 26.6619C89.9396 26.4517 89.4311 26.3466 88.8402 26.3466H85.7464V30.983ZM85.7464 23.8494H88.4822C88.9879 23.8494 89.4368 23.7614 89.8288 23.5852C90.2266 23.4034 90.5391 23.1477 90.7663 22.8182C90.9993 22.4886 91.1158 22.0938 91.1158 21.6335C91.1158 21.0028 90.8913 20.4943 90.4425 20.108C89.9993 19.7216 89.3686 19.5284 88.5504 19.5284H85.7464V23.8494ZM101.486 16.5455V34H97.8551V16.5455H101.486ZM110.309 34.2557C108.985 34.2557 107.84 33.9744 106.874 33.4119C105.914 32.8437 105.173 32.054 104.65 31.0426C104.127 30.0256 103.866 28.8466 103.866 27.5057C103.866 26.1534 104.127 24.9716 104.65 23.9602C105.173 22.9432 105.914 22.1534 106.874 21.5909C107.84 21.0227 108.985 20.7386 110.309 20.7386C111.633 20.7386 112.775 21.0227 113.735 21.5909C114.701 22.1534 115.445 22.9432 115.968 23.9602C116.491 24.9716 116.752 26.1534 116.752 27.5057C116.752 28.8466 116.491 30.0256 115.968 31.0426C115.445 32.054 114.701 32.8437 113.735 33.4119C112.775 33.9744 111.633 34.2557 110.309 34.2557ZM110.326 31.4432C110.928 31.4432 111.431 31.2727 111.835 30.9318C112.238 30.5852 112.542 30.1136 112.746 29.517C112.957 28.9205 113.062 28.2415 113.062 27.4801C113.062 26.7188 112.957 26.0398 112.746 25.4432C112.542 24.8466 112.238 24.375 111.835 24.0284C111.431 23.6818 110.928 23.5085 110.326 23.5085C109.718 23.5085 109.207 23.6818 108.792 24.0284C108.383 24.375 108.073 24.8466 107.863 25.4432C107.658 26.0398 107.556 26.7188 107.556 27.4801C107.556 28.2415 107.658 28.9205 107.863 29.517C108.073 30.1136 108.383 30.5852 108.792 30.9318C109.207 31.2727 109.718 31.4432 110.326 31.4432ZM125.011 39.1818C123.835 39.1818 122.826 39.0199 121.985 38.696C121.15 38.3778 120.485 37.9432 119.991 37.392C119.496 36.8409 119.175 36.2216 119.028 35.5341L122.386 35.0824C122.488 35.3438 122.65 35.5881 122.871 35.8153C123.093 36.0426 123.386 36.2244 123.749 36.3608C124.119 36.5028 124.567 36.5739 125.096 36.5739C125.886 36.5739 126.536 36.3807 127.048 35.9943C127.565 35.6136 127.823 34.9744 127.823 34.0767V31.6818H127.67C127.511 32.0455 127.272 32.3892 126.954 32.7131C126.636 33.0369 126.227 33.3011 125.727 33.5057C125.227 33.7102 124.63 33.8125 123.937 33.8125C122.954 33.8125 122.059 33.5852 121.252 33.1307C120.451 32.6705 119.812 31.9687 119.335 31.0256C118.863 30.0767 118.627 28.8778 118.627 27.429C118.627 25.946 118.869 24.7074 119.352 23.7131C119.835 22.7187 120.477 21.9744 121.278 21.4801C122.085 20.9858 122.968 20.7386 123.928 20.7386C124.661 20.7386 125.275 20.8636 125.769 21.1136C126.263 21.358 126.661 21.6648 126.962 22.0341C127.269 22.3977 127.505 22.7557 127.67 23.108H127.806V20.9091H131.411V34.1278C131.411 35.2415 131.138 36.1733 130.593 36.9233C130.048 37.6733 129.292 38.2358 128.326 38.6108C127.366 38.9915 126.261 39.1818 125.011 39.1818ZM125.087 31.0852C125.673 31.0852 126.167 30.9403 126.57 30.6506C126.979 30.3551 127.292 29.9347 127.508 29.3892C127.729 28.8381 127.84 28.179 127.84 27.4119C127.84 26.6449 127.732 25.9801 127.516 25.4176C127.3 24.8494 126.988 24.4091 126.579 24.0966C126.17 23.7841 125.673 23.6278 125.087 23.6278C124.491 23.6278 123.988 23.7898 123.579 24.1136C123.17 24.4318 122.86 24.875 122.65 25.4432C122.44 26.0114 122.335 26.6676 122.335 27.4119C122.335 28.1676 122.44 28.821 122.65 29.3722C122.866 29.9176 123.175 30.3409 123.579 30.642C123.988 30.9375 124.491 31.0852 125.087 31.0852Z" fill="#5B47D1"/>
</svg>
